<svg width="32" height="32" viewBox="0 0 32 32" fill="none" xmlns="http://www.w3.org/2000/svg">
<path d="M23.1688 0H8.8306C3.96141 0 0 3.9616 0 8.83079V23.169C0 28.0384 3.96141 31.9998 8.8306 31.9998H23.1688C28.0384 31.9998 31.9998 28.0382 31.9998 23.169V8.83079C32 3.9616 28.0384 0 23.1688 0ZM29.1608 23.169C29.1608 26.4729 26.4729 29.1606 23.169 29.1606H8.8306C5.52693 29.1608 2.83918 26.4729 2.83918 23.169V8.83079C2.83918 5.52712 5.52693 2.83918 8.8306 2.83918H23.1688C26.4727 2.83918 29.1606 5.52712 29.1606 8.83079V23.169H29.1608Z" fill="white"/>
<path d="M15.9998 7.75479C11.4532 7.75479 7.75427 11.4537 7.75427 16.0003C7.75427 20.5468 11.4532 24.2455 15.9998 24.2455C20.5465 24.2455 24.2454 20.5468 24.2454 16.0003C24.2454 11.4537 20.5465 7.75479 15.9998 7.75479ZM15.9998 21.4061C13.0189 21.4061 10.5935 18.9811 10.5935 16.0001C10.5935 13.019 13.0187 10.5938 15.9998 10.5938C18.981 10.5938 21.4062 13.019 21.4062 16.0001C21.4062 18.9811 18.9808 21.4061 15.9998 21.4061Z" fill="white"/>
<path d="M24.5915 5.34732C24.0444 5.34732 23.5071 5.56878 23.1208 5.9568C22.7326 6.34293 22.5094 6.88048 22.5094 7.42938C22.5094 7.97659 22.7327 8.51395 23.1208 8.90197C23.5069 9.2881 24.0444 9.51145 24.5915 9.51145C25.1404 9.51145 25.676 9.2881 26.064 8.90197C26.4521 8.51395 26.6735 7.9764 26.6735 7.42938C26.6735 6.88048 26.4521 6.34293 26.064 5.9568C25.6779 5.56878 25.1404 5.34732 24.5915 5.34732Z" fill="white"/>
</svg>
